<?xml version="1.0" encoding="utf-8"?>
<svg viewBox="161.058 137.4312 32.75 12.0057" xmlns="http://www.w3.org/2000/svg">
  <path d="M 161.889 147.436 L 161.889 139.419 L 163.486 139.419 L 165.384 145.095 Q 165.646 145.888 165.767 146.282 Q 165.903 145.845 166.193 144.997 L 168.113 139.419 L 169.54 139.419 L 169.54 147.436 L 168.517 147.436 L 168.517 140.726 L 166.188 147.436 L 165.231 147.436 L 162.912 140.611 L 162.912 147.436 Z M 170.359 147.436 L 173.437 139.419 L 174.58 139.419 L 177.862 147.436 L 176.653 147.436 L 175.718 145.008 L 172.366 145.008 L 171.485 147.436 Z M 172.672 144.144 L 175.39 144.144 L 174.553 141.924 Q 174.17 140.912 173.984 140.261 Q 173.831 141.032 173.552 141.792 Z M 179.923 147.436 L 179.923 140.365 L 177.281 140.365 L 177.281 139.419 L 183.636 139.419 L 183.636 140.365 L 180.984 140.365 L 180.984 147.436 Z M 186.754 147.436 L 186.754 140.365 L 184.113 140.365 L 184.113 139.419 L 190.467 139.419 L 190.467 140.365 L 187.815 140.365 L 187.815 147.436 Z M 191.742 147.436 L 191.742 139.419 L 192.803 139.419 L 192.803 147.436 Z" style="fill: rgb(51, 51, 51);"/>
</svg>