<?xml version="1.0" encoding="utf-8"?>
<svg viewBox="141 127.612 223.1768 224.8073" xmlns="http://www.w3.org/2000/svg" xmlns:bx="https://boxy-svg.com">
  <defs>
    <linearGradient gradientUnits="userSpaceOnUse" x1="250" y1="128" x2="250" y2="335" id="gradient-4" gradientTransform="matrix(0.936473, -0.35074, 0.315458, 0.842271, -89.796771, 140.524337)">
      <stop offset="0" style="stop-color: rgb(41, 40, 231);"/>
      <stop offset="0.146" style="stop-color: rgb(28, 16, 115);"/>
      <stop offset="0.275" style="stop-color: rgb(87, 12, 80);"/>
      <stop offset="0.47" style="stop-color: rgb(70, 24, 17);"/>
      <stop offset="0.672" style="stop-color: rgb(22, 47, 21);"/>
      <stop offset="0.833" style="stop-color: rgb(75, 2, 81);"/>
      <stop offset="1" style="stop-color: rgb(27, 46, 111);"/>
    </linearGradient>
  </defs>
  <g>
    <title>Logo</title>
    <ellipse style="stroke: rgb(0, 0, 0); paint-order: stroke; fill-opacity: 0.79; fill: url('#gradient-4');" cx="250" cy="231.5" rx="109" ry="103.5">
      <title>Ellipse</title>
    </ellipse>
    <g>
      <title>GhiroGoro Sopra</title>
      <path style="transform-box: fill-box; transform-origin: 50% 50%; stroke-width: 2px; paint-order: stroke; stroke: rgba(255, 29, 29, 0); fill: rgb(216, 174, 112);" d="M 327.66 148.216 C 325.323 147.256 326.909 152.629 301.875 158.042 C 293.719 159.806 296.734 133.434 297.5 127.612" transform="matrix(-1, 0, 0, -1, 0.000025, -0.000018)"/>
      <path style="stroke-width: 2px; paint-order: stroke; stroke: rgba(255, 29, 29, 0); fill: rgb(216, 174, 112);" d="M 297.532 137.66 C 297.532 137.66 290.4767535590847 160.2814035713036 281.106 170.513 C 267.6657689434217 185.18791586586704 214.8065014990399 203.93674964972405 216.745 210.098 C 218.89009424006167 216.91588643705902 291.62710779167816 217.82803342130933 309.112 204.713 C 322.0414666788671 195.014891164514 326.076 157.049 326.076 157.049" bx:d="M 297.532 137.66 R 281.106 170.513 R 216.745 210.098 R 309.112 204.713 R 326.076 157.049 1@5629b5eb"/>
    </g>
    <g>
      <title>GhiriGoro Sotto</title>
      <path style="stroke: rgba(0, 0, 0, 0); fill: rgb(174, 123, 184);" d="M 203.551 324.815 C 210.177 334.218 171.395 370.234 173.929 341.51 L 173.121 304.888"/>
      <path style="stroke: rgba(0, 0, 0, 0); fill: rgb(174, 123, 184);" d="M 204.14 327.537 C 204.14 327.537 220.95392511380922 301.63261391695886 233.194 291.038 C 246.972062616764 279.1121535239311 272.87981302880877 274.7085143672017 284.242 261.235 C 294.5097962383041 249.05923661157314 305.4992390120972 220.16686969370144 301.194 216.037 C 297.3819365847492 212.3802169213195 278.9510009522166 224.89138173605627 266.341 230.789 C 250.7960228842715 238.05928818615513 228.93979304880588 248.3522009368313 215.182 257.069 C 204.9505245712805 263.55155974744696 196.84349937607598 268.3675682844077 189.955 276.445 C 182.7330770202871 284.9134031367553 173.303 307.188 173.303 307.188" bx:d="M 204.14 327.537 R 233.194 291.038 R 284.242 261.235 R 301.194 216.037 R 266.341 230.789 R 215.182 257.069 R 189.955 276.445 R 173.303 307.188 1@dc8019ab"/>
    </g>
    <path d="M 198.95 213.699 Q 199.015 213.447 199.092 213.203 Q 199.169 212.959 199.281 212.656 Q 199.378 212.387 199.518 212.035 Q 199.657 211.684 199.813 211.321 Q 199.969 210.958 200.118 210.647 Q 200.267 210.335 200.388 210.149 Q 200.537 209.921 200.711 209.809 Q 200.886 209.697 201.225 209.697 L 201.835 209.697 Q 202.077 209.697 202.242 209.77 Q 202.407 209.842 202.477 210.111 Q 202.528 210.312 202.574 210.698 Q 202.621 211.084 202.654 211.768 Q 202.686 212.452 202.705 213.524 Q 202.723 214.596 202.723 216.174 Q 202.723 216.257 202.667 216.313 Q 202.612 216.369 202.533 216.369 L 201.472 216.369 Q 201.393 216.369 201.337 216.313 Q 201.281 216.257 201.281 216.169 Q 201.281 214.941 201.281 214.085 Q 201.281 213.229 201.276 212.666 Q 201.272 212.103 201.265 211.77 Q 201.258 211.437 201.244 211.256 L 201.216 211.256 Q 200.969 211.824 200.69 212.519 Q 200.411 213.215 200.146 213.952 Q 199.881 214.689 199.671 215.392 Q 199.611 215.601 199.52 215.683 Q 199.429 215.764 199.108 215.764 L 198.573 215.764 Q 198.299 215.764 198.208 215.694 Q 198.117 215.625 198.052 215.392 Q 197.899 214.862 197.713 214.271 Q 197.527 213.68 197.329 213.11 Q 197.131 212.54 196.947 212.059 Q 196.764 211.577 196.619 211.256 L 196.591 211.256 Q 196.554 211.805 196.526 212.591 Q 196.498 213.377 196.482 214.299 Q 196.466 215.22 196.461 216.178 Q 196.461 216.262 196.405 216.316 Q 196.349 216.369 196.27 216.369 L 195.317 216.369 Q 195.238 216.369 195.182 216.313 Q 195.126 216.257 195.126 216.169 Q 195.131 213.689 195.226 212.21 Q 195.321 210.73 195.433 210.228 Q 195.507 209.897 195.696 209.797 Q 195.884 209.697 196.126 209.697 L 196.88 209.697 Q 197.136 209.697 197.254 209.788 Q 197.373 209.879 197.545 210.139 Q 197.647 210.293 197.789 210.6 Q 197.931 210.907 198.085 211.282 Q 198.238 211.656 198.376 212.021 Q 198.513 212.387 198.601 212.656 Q 198.694 212.931 198.773 213.189 Q 198.852 213.447 198.913 213.699 Z" transform="matrix(5.478847, 0, 0, 5.155152, -186.78363, -28.00387)" style="fill: rgb(232, 218, 220); line-height: 15.2451px; stroke: rgb(52, 100, 135); stroke-opacity: 0.6; stroke-width: 0.367976px; text-transform: capitalize; transform-origin: 163.945px 205.321px; vector-effect: non-scaling-stroke;"/>
    <path d="M 209.856 210.065 Q 210.112 210.423 210.379 210.988 Q 210.647 211.554 210.898 212.228 Q 211.149 212.903 211.352 213.608 Q 211.554 214.313 211.684 214.964 Q 211.815 215.615 211.833 216.122 Q 211.838 216.369 211.61 216.369 L 210.484 216.369 Q 210.265 216.369 210.256 216.15 Q 210.237 215.629 210.089 214.885 L 207.548 214.885 Q 207.418 215.611 207.399 216.15 Q 207.39 216.369 207.162 216.369 L 206.06 216.369 Q 205.976 216.369 205.92 216.32 Q 205.864 216.271 205.869 216.15 Q 205.892 215.634 206.02 214.976 Q 206.148 214.317 206.353 213.61 Q 206.557 212.903 206.809 212.226 Q 207.06 211.549 207.33 210.986 Q 207.599 210.423 207.855 210.065 Q 207.99 209.874 208.142 209.786 Q 208.293 209.697 208.516 209.697 L 209.186 209.697 Q 209.414 209.697 209.567 209.786 Q 209.721 209.874 209.856 210.065 Z M 208.804 211.168 Q 208.497 211.656 208.242 212.335 Q 207.986 213.015 207.8 213.731 L 209.819 213.731 Q 209.623 213.015 209.367 212.335 Q 209.112 211.656 208.832 211.168 Z" transform="matrix(5.478847, 0, 0, 5.155152, -186.78363, -28.00387)" style="fill: rgb(232, 218, 220); line-height: 15.2451px; stroke: rgb(52, 100, 135); stroke-opacity: 0.6; stroke-width: 0.367976px; text-transform: capitalize; transform-origin: 163.945px 205.321px; vector-effect: non-scaling-stroke;"/>
    <path d="M 217.074 216.122 Q 217.074 216.262 217.016 216.316 Q 216.958 216.369 216.818 216.369 L 215.827 216.369 Q 215.688 216.369 215.629 216.316 Q 215.571 216.262 215.571 216.122 L 215.571 210.921 L 214.185 210.921 Q 214.073 210.921 214.017 210.884 Q 213.896 210.8 213.768 210.684 Q 213.641 210.567 213.492 210.405 Q 213.445 210.344 213.445 210.307 Q 213.445 210.265 213.492 210.214 Q 213.641 210.051 213.768 209.935 Q 213.896 209.818 214.017 209.735 Q 214.083 209.697 214.185 209.697 L 218.465 209.697 Q 218.577 209.697 218.633 209.735 Q 218.754 209.818 218.884 209.935 Q 219.014 210.051 219.158 210.214 Q 219.205 210.274 219.205 210.312 Q 219.205 210.353 219.158 210.405 Q 219.014 210.567 218.884 210.684 Q 218.754 210.8 218.633 210.884 Q 218.567 210.921 218.465 210.921 L 217.074 210.921 Z" transform="matrix(5.478847, 0, 0, 5.155152, -186.78363, -28.00387)" style="fill: rgb(232, 218, 220); line-height: 15.2451px; stroke: rgb(52, 100, 135); stroke-opacity: 0.6; stroke-width: 0.367976px; text-transform: capitalize; transform-origin: 163.945px 205.321px; vector-effect: non-scaling-stroke;"/>
    <path d="M 225.258 216.122 Q 225.258 216.262 225.2 216.316 Q 225.142 216.369 225.002 216.369 L 224.011 216.369 Q 223.871 216.369 223.813 216.316 Q 223.755 216.262 223.755 216.122 L 223.755 210.921 L 222.369 210.921 Q 222.257 210.921 222.201 210.884 Q 222.08 210.8 221.952 210.684 Q 221.824 210.567 221.675 210.405 Q 221.629 210.344 221.629 210.307 Q 221.629 210.265 221.675 210.214 Q 221.824 210.051 221.952 209.935 Q 222.08 209.818 222.201 209.735 Q 222.266 209.697 222.369 209.697 L 226.649 209.697 Q 226.761 209.697 226.816 209.735 Q 226.937 209.818 227.068 209.935 Q 227.198 210.051 227.342 210.214 Q 227.389 210.274 227.389 210.312 Q 227.389 210.353 227.342 210.405 Q 227.198 210.567 227.068 210.684 Q 226.937 210.8 226.816 210.884 Q 226.751 210.921 226.649 210.921 L 225.258 210.921 Z" transform="matrix(5.478847, 0, 0, 5.155152, -186.78363, -28.00387)" style="fill: rgb(232, 218, 220); line-height: 15.2451px; stroke: rgb(52, 100, 135); stroke-opacity: 0.6; stroke-width: 0.367976px; text-transform: capitalize; transform-origin: 163.945px 205.321px; vector-effect: non-scaling-stroke;"/>
    <path d="M 231.737 216.122 Q 231.737 216.262 231.679 216.316 Q 231.62 216.369 231.481 216.369 L 230.49 216.369 Q 230.35 216.369 230.292 216.316 Q 230.234 216.262 230.234 216.122 L 230.234 210.442 Q 230.234 210.307 230.28 210.237 Q 230.49 209.93 230.867 209.59 Q 230.936 209.535 230.988 209.535 Q 231.043 209.535 231.104 209.59 Q 231.309 209.767 231.448 209.928 Q 231.588 210.088 231.69 210.237 Q 231.737 210.312 231.737 210.442 Z" transform="matrix(5.478847, 0, 0, 5.155152, -186.78363, -28.00387)" style="fill: rgb(232, 218, 220); line-height: 15.2451px; stroke: rgb(52, 100, 135); stroke-opacity: 0.6; stroke-width: 0.367976px; text-transform: capitalize; transform-origin: 163.945px 205.321px; vector-effect: non-scaling-stroke;"/>
  </g>
</svg>